<?xml version="1.0" encoding="UTF-8"?>
<svg version="1.1" xmlns="http://www.w3.org/2000/svg" width="269" height="278">
<path d="M0 0 C4.04161224 2.03875696 7.85150244 4.41350252 11.6875 6.8125 C13.94522473 8.19675775 16.2030382 9.58087077 18.4609375 10.96484375 C20.1310791 11.99714111 20.1310791 11.99714111 21.83496094 13.05029297 C26.13635392 15.70000944 30.47282515 18.2886788 34.8125 20.875 C40.45127575 24.25167174 46.0766035 27.65002994 51.69140625 31.06640625 C52.27563354 31.42187027 52.85986084 31.77733429 53.46179199 32.14356995 C54.66148483 32.87356574 55.86117145 33.60357174 57.06085205 34.33358765 C57.65952087 34.69787872 58.2581897 35.0621698 58.875 35.4375 C59.4710907 35.80026031 60.0671814 36.16302063 60.68133545 36.53677368 C68.73377513 41.43508412 76.81476125 46.28137634 84.9375 51.0625 C98.30808244 58.9446526 98.30808244 58.9446526 102.75 61.625 C103.73484375 62.21539062 104.7196875 62.80578125 105.734375 63.4140625 C108 65 108 65 110 68 C110.30780029 70.1335144 110.30780029 70.1335144 110.38574219 72.63232422 C110.41786804 73.57115448 110.4499939 74.50998474 110.48309326 75.4772644 C110.57269662 79.80056213 110.65424802 84.12325272 110.70019531 88.44726562 C110.7331444 90.71493832 110.78750132 92.98241065 110.86425781 95.24902344 C111.61956458 117.69148639 111.61956458 117.69148639 103.51922607 126.65744019 C102.38528668 127.81143284 101.19829323 128.91298072 100 130 C101.97298996 132.07341161 103.68889265 133.45466915 106.125 135.0625 C109 137 109 137 110 139 C110.10080815 140.73521626 110.13836626 142.47427399 110.14526367 144.21240234 C110.15164352 145.30048187 110.15802338 146.3885614 110.16459656 147.50961304 C110.16626579 149.27989365 110.16626579 149.27989365 110.16796875 151.0859375 C110.17129715 152.29440338 110.17462555 153.50286926 110.17805481 154.74795532 C110.18312552 157.30852883 110.18546309 159.86910897 110.18530273 162.4296875 C110.18748701 166.35167319 110.20563545 170.27337671 110.22460938 174.1953125 C110.22754367 176.67968653 110.22952822 179.16406191 110.23046875 181.6484375 C110.23765427 182.82457611 110.24483978 184.00071472 110.25224304 185.2124939 C110.24916641 186.30687775 110.24608978 187.4012616 110.24291992 188.52880859 C110.24434494 189.49096283 110.24576996 190.45311707 110.24723816 191.44442749 C109.98688032 194.13561135 109.44640781 195.73153209 108 198 C105.84643555 199.5612793 105.84643555 199.5612793 103.13671875 201.07421875 C102.119729 201.65034912 101.10273926 202.22647949 100.05493164 202.82006836 C98.9436792 203.4363208 97.83242676 204.05257324 96.6875 204.6875 C95.51805406 205.3470699 94.34936682 206.00798662 93.18139648 206.67016602 C91.34353144 207.7121247 89.5053222 208.75339824 87.66499329 209.79100037 C80.91892741 213.59626261 74.23916928 217.51215905 67.5625 221.4375 C66.33947982 222.15526528 65.1164165 222.87295706 63.89331055 223.59057617 C56.86162554 227.71841937 49.84118926 231.86498114 42.82885742 236.02563477 C40.62305396 237.33390998 38.41619703 238.64041076 36.20825195 239.94506836 C30.82834911 243.12534355 25.45996433 246.3208482 20.11791992 249.56420898 C17.47551974 251.16532299 14.82586988 252.75418439 12.17504883 254.34130859 C10.90524684 255.10560539 9.63871034 255.87535749 8.37573242 256.65087891 C6.6180408 257.72945705 4.84978118 258.78831424 3.078125 259.84375 C2.07168945 260.45412109 1.06525391 261.06449219 0.02832031 261.69335938 C-3.62404341 263.26925833 -6.0549207 263.42269705 -10 263 C-12.67700195 261.86108398 -12.67700195 261.86108398 -15.23828125 260.24609375 C-16.21095947 259.64587402 -17.1836377 259.0456543 -18.18579102 258.42724609 C-19.21760498 257.77062988 -20.24941895 257.11401367 -21.3125 256.4375 C-23.53506089 255.06154224 -25.75906818 253.68791862 -27.984375 252.31640625 C-28.55539444 251.96211548 -29.12641388 251.60782471 -29.71473694 251.24279785 C-36.07808451 247.30371758 -42.56540276 243.58782627 -49.0625 239.875 C-55.78753142 236.03133277 -62.46401122 232.15855228 -69 228 C-65.56268993 224.20133169 -61.71113837 221.58736234 -57.375 218.9375 C-56.71371094 218.48439453 -56.05242187 218.03128906 -55.37109375 217.56445312 C-53.19182071 216.25312472 -51.50718714 215.45262493 -49 215 C-45.25504114 215.96685685 -42.25190477 217.95057811 -39 220 C-36.77652135 221.29509473 -34.5525326 222.58931396 -32.328125 223.8828125 C-29.96407803 225.28912064 -27.60700911 226.70693586 -25.25 228.125 C-23.45396297 229.203397 -21.65728491 230.28067672 -19.85906982 231.35543823 C-18.23821123 232.32447046 -16.61952271 233.29712982 -15.00097656 234.27001953 C-10.59384365 236.81974146 -10.59384365 236.81974146 -6 239 C-2.74790611 237.84546055 -2.74790611 237.84546055 0.25 235.6875 C5.89714286 232 5.89714286 232 8 232 C8 215.83 8 199.66 8 183 C1.07 186.96 -5.86 190.92 -13 195 C-17.84014187 193.78996453 -21.43071475 191.59384936 -25.6875 189.0625 C-26.47189453 188.60681641 -27.25628906 188.15113281 -28.06445312 187.68164062 C-28.81017578 187.24142578 -29.55589844 186.80121094 -30.32421875 186.34765625 C-31.00572998 185.94554932 -31.68724121 185.54344238 -32.3894043 185.12915039 C-34 184 -34 184 -35 182 C-35.16186922 179.24557275 -35.26110108 176.51881559 -35.30859375 173.76171875 C-35.32390137 172.91096268 -35.33920898 172.0602066 -35.35498047 171.18367004 C-35.71067717 146.6156048 -33.73396773 123.02266836 -29.90283203 98.77392578 C-29.10871879 93.74281814 -28.36746357 88.70524456 -27.63887024 83.66427612 C-27.04471463 79.57044302 -26.43373222 75.47925851 -25.81765747 71.38867188 C-25.52481824 69.43632957 -25.23607604 67.4833679 -24.95162964 65.52978516 C-24.55466887 62.8281971 -24.13600249 60.13088315 -23.7109375 57.43359375 C-23.59749496 56.6347728 -23.48405243 55.83595184 -23.36717224 55.01292419 C-22.61561525 50.42214555 -21.75556527 47.82426948 -18 45 C-15.83349609 43.62792969 -15.83349609 43.62792969 -13.5234375 42.421875 C-12.688125 41.98359375 -11.8528125 41.5453125 -10.9921875 41.09375 C-10.12851563 40.6503125 -9.26484375 40.206875 -8.375 39.75 C-7.50359375 39.29109375 -6.6321875 38.8321875 -5.734375 38.359375 C0.72442336 35 0.72442336 35 3 35 C4.33020608 39.40955729 3.47203641 43.21211967 2.64477539 47.65112305 C2.48886429 48.5252887 2.33295319 49.39945435 2.1723175 50.30010986 C1.83239279 52.20329491 1.48900588 54.10586405 1.14259529 56.00787926 C0.59025136 59.05253634 0.05163693 62.09932311 -0.48280334 65.14717102 C-2.00361761 73.81592794 -3.53413668 82.48274975 -5.10913086 91.1418457 C-9.73223454 116.6178652 -13.47735843 141.05716316 -12 167 C-10.08837792 168.22850867 -10.08837792 168.22850867 -8.22727966 167.5476532 C-2.58023104 165.2510301 2.96274243 162.69129007 7 158 C9.66706272 151.07488241 8.47229173 143.05532552 7.9375 135.8125 C6.7133814 115.76372755 6.7133814 115.76372755 10.0534668 111.18505859 C12.65626661 109.35172155 15.04857903 108.16992534 18 107 C19.66018854 106.02401774 21.30862442 105.02739073 22.9375 104 C25.08984375 102.75 25.08984375 102.75 27 102 C27.99 102.33 28.98 102.66 30 103 C30.33 140.62 30.66 178.24 31 217 C34.3 215.02 37.6 213.04 41 211 C41.8956099 206.92145472 42.09662247 204.44104116 41.84375 200.40625 C41.82807983 199.38253296 41.81240967 198.35881592 41.79626465 197.30407715 C41.72812779 192.94414712 41.54420976 188.5910513 41.36767578 184.234375 C40.902628 171.01344578 40.71517015 161.43552619 49.83007812 151.20117188 C50.54615234 150.47478516 51.26222656 149.74839844 52 149 C51.28682617 148.76949951 50.57365234 148.53899902 49.83886719 148.30151367 C46.23179947 146.59481173 44.41464453 145.22107787 42 142 C40.12636714 134.36010049 40.98017169 126.10235097 41.25 118.3125 C41.28303346 116.11399384 41.31172469 113.91541787 41.3359375 111.71679688 C41.40371148 107.69616108 41.47363012 103.67627083 41.61425781 99.6574707 C41.63997864 98.85251663 41.66569946 98.04756256 41.69219971 97.21821594 C42.03715055 94.73226813 42.6646615 93.12064367 44 91 C46.12964015 89.52577449 48.18093585 88.24885406 50.43359375 86.99609375 C51.06733414 86.6315358 51.70107452 86.26697784 52.35401917 85.89137268 C54.37623859 84.7299283 56.4061877 83.58295515 58.4375 82.4375 C60.46399383 81.28648231 62.48861803 80.13241878 64.51026917 78.97291565 C65.76706079 78.25293289 67.02683573 77.5381263 68.28990173 76.82920837 C71.22372945 75.15651189 73.77709417 73.56657713 76 71 C75.20005615 70.53215088 74.4001123 70.06430176 73.57592773 69.58227539 C67.16212947 65.83000723 60.74961166 62.0755556 54.33984375 58.31640625 C53.72008163 57.95329849 53.10031952 57.59019073 52.46177673 57.21607971 C47.02171909 54.0242168 41.6164565 50.77591373 36.21484375 47.51953125 C30.50879219 44.09709125 24.77415648 40.72272705 19.03857422 37.35009766 C17.73741487 36.58457742 16.43678205 35.81816141 15.13671875 35.05078125 C12.13791633 33.28130156 9.13437059 31.52203392 6.11303711 29.79125977 C4.24646715 28.71722449 2.39118735 27.62262269 0.56079102 26.48803711 C-1.65811855 25.11162193 -1.65811855 25.11162193 -5 24 C-8.21627106 24.87072692 -8.21627106 24.87072692 -11.1875 27.1875 C-12.48924343 28.05521426 -13.79424483 28.91805072 -15.1015625 29.77734375 C-15.8534082 30.28120605 -16.60525391 30.78506836 -17.37988281 31.30419922 C-22.20491802 34.42707422 -27.20061193 37.26863862 -32.17123413 40.15167236 C-35.33148748 41.98694769 -38.48382568 43.83571224 -41.63671875 45.68359375 C-42.56944359 46.22977356 -42.56944359 46.22977356 -43.52101135 46.7869873 C-50.37173767 50.79988337 -57.20580765 54.84090391 -64.03540039 58.88964844 C-68.66816773 61.63357775 -73.31687248 64.34286161 -78 67 C-74.52979537 69.88885694 -71.00085988 72.30883218 -67.11328125 74.6015625 C-66.01048828 75.25640625 -64.90769531 75.91125 -63.77148438 76.5859375 C-62.61870371 77.2659881 -61.46570653 77.94567182 -60.3125 78.625 C-58.03564716 79.96786494 -55.76139965 81.31485674 -53.48828125 82.6640625 C-51.98068237 83.55279053 -51.98068237 83.55279053 -50.44262695 84.45947266 C-48 86 -48 86 -46 88 C-45.72876453 89.85354233 -45.72876453 89.85354233 -45.69892883 92.14837646 C-45.68317307 93.01752686 -45.6674173 93.88667725 -45.65118408 94.78216553 C-45.64423523 95.73802551 -45.63728638 96.6938855 -45.63012695 97.67871094 C-45.61537827 98.68373657 -45.60062958 99.68876221 -45.58543396 100.72424316 C-45.54079339 104.06094325 -45.51265615 107.39746801 -45.48828125 110.734375 C-45.47888205 111.87243843 -45.46948284 113.01050186 -45.45979881 114.18305206 C-45.4121828 120.20697868 -45.37851595 126.23081752 -45.35473633 132.25488281 C-45.32702055 138.48108476 -45.24785059 144.70553051 -45.15719318 150.93108749 C-45.09741939 155.71464649 -45.07747393 160.49778616 -45.06822777 165.28168488 C-45.05663095 167.57671057 -45.02974374 169.87171174 -44.98729897 172.16637421 C-44.93137718 175.38025976 -44.93215596 178.58947645 -44.9465332 181.80371094 C-44.91731781 182.751474 -44.88810242 183.69923706 -44.85800171 184.67572021 C-44.90518962 187.39782928 -45.04475623 189.44718425 -46 192 C-48.71241971 194.61417492 -51.661911 196.29527744 -55 198 C-56.01191406 198.62648437 -57.02382812 199.25296875 -58.06640625 199.8984375 C-58.89011719 200.38570312 -59.71382812 200.87296875 -60.5625 201.375 C-61.40941406 201.87773437 -62.25632813 202.38046875 -63.12890625 202.8984375 C-63.74636719 203.26195312 -64.36382812 203.62546875 -65 204 C-64.505 204.45375 -64.01 204.9075 -63.5 205.375 C-62 207 -62 207 -62 209 C-64.85948337 210.71488302 -67.73960028 212.39165226 -70.625 214.0625 C-71.43324219 214.54783203 -72.24148437 215.03316406 -73.07421875 215.53320312 C-73.86699219 215.98759766 -74.65976563 216.44199219 -75.4765625 216.91015625 C-76.19924316 217.33433838 -76.92192383 217.75852051 -77.66650391 218.19555664 C-80.84950357 219.29285565 -82.76450948 218.87159733 -86 218 C-88.83325195 216.60473633 -88.83325195 216.60473633 -91.73828125 214.83203125 C-92.80626953 214.18556641 -93.87425781 213.53910156 -94.97460938 212.87304688 C-96.07611328 212.19306641 -97.17761719 211.51308594 -98.3125 210.8125 C-99.40240234 210.15185547 -100.49230469 209.49121094 -101.61523438 208.81054688 C-118.43512019 198.56487981 -118.43512019 198.56487981 -121 196 C-121.11788397 194.34618725 -121.16629322 192.68738311 -121.18754578 191.0295105 C-121.20337204 189.95282608 -121.2191983 188.87614166 -121.23550415 187.76683044 C-121.24761932 186.57517776 -121.2597345 185.38352509 -121.2722168 184.15576172 C-121.28842575 182.90864914 -121.3046347 181.66153656 -121.32133484 180.37663269 C-121.46163246 168.85893147 -121.54112102 157.34040206 -121.60025311 145.82201958 C-121.64480706 137.30727777 -121.72189332 128.79414894 -121.84183758 120.28012836 C-121.92331751 114.29451558 -121.96640271 108.30934401 -121.98155528 102.32320035 C-121.9917138 98.74786029 -122.01893106 95.17454952 -122.08786583 91.59981918 C-122.16403446 87.60572688 -122.16086386 83.61541237 -122.15112305 79.62060547 C-122.18550476 78.44109818 -122.21988647 77.26159088 -122.25531006 76.04634094 C-122.14629792 68.19894865 -122.14629792 68.19894865 -118.86509132 64.76703262 C-116.31402026 62.95077764 -113.7737047 61.44867076 -111 60 C-109.39860313 59.05359328 -107.79925707 58.10369663 -106.203125 57.1484375 C-104.55456185 56.21954577 -102.90342017 55.29521848 -101.25 54.375 C-99.38984457 53.32560093 -97.53049396 52.2747742 -95.671875 51.22265625 C-94.72892578 50.68914551 -93.78597656 50.15563477 -92.81445312 49.60595703 C-88.34730033 47.05695191 -83.92251077 44.43798392 -79.5 41.8125 C-73.39368379 38.18821205 -67.28199497 34.57413008 -61.1484375 30.99609375 C-47.29617299 22.91178424 -33.51202565 14.73212969 -19.83349609 6.35644531 C-18.73215332 5.68323242 -17.63081055 5.01001953 -16.49609375 4.31640625 C-15.52857178 3.72287354 -14.5610498 3.12934082 -13.56420898 2.51782227 C-8.66913777 -0.37969823 -5.63038283 -1.87508304 0 0 Z M-99 87 C-99.33380905 89.98590572 -99.47176184 92.7684583 -99.48339844 95.76074219 C-99.49829315 96.66823212 -99.51318787 97.57572205 -99.52853394 98.51071167 C-99.57246596 101.52283477 -99.59281621 104.53448372 -99.609375 107.546875 C-99.62662644 109.63714617 -99.64389967 111.72741717 -99.66119385 113.81768799 C-99.69274455 118.20595517 -99.71025788 122.59405717 -99.72070312 126.98242188 C-99.73714656 132.60343829 -99.80918648 138.22227012 -99.89461899 143.84260178 C-99.95052765 148.1629673 -99.96611623 152.48280823 -99.97071075 156.80350494 C-99.97978878 158.87523572 -100.00387096 160.94695736 -100.0432663 163.01833344 C-100.75007098 173.85665013 -100.75007098 173.85665013 -97.07043457 183.56311035 C-94.72445371 185.16777425 -92.6889416 186.11309897 -90 187 C-89.34642517 187.3879071 -88.69285034 187.77581421 -88.01947021 188.17547607 C-84.28669183 189.69952187 -81.35437096 188.13196528 -77.72372437 186.77993774 C-73.99911494 184.90878673 -70.70134328 183.22725245 -68 180 C-66.08432728 174.05608436 -66.26003386 168.34107589 -66.4140625 162.1484375 C-66.41546532 160.40304367 -66.41241204 158.65764112 -66.40512085 156.91226196 C-66.40400858 153.26438134 -66.44758465 149.62067464 -66.52490234 145.97363281 C-66.62152376 141.30696104 -66.62021504 136.6466088 -66.58725929 131.97925377 C-66.57025173 128.37898556 -66.59800458 124.7801569 -66.63990402 121.18013382 C-66.65592025 119.4602718 -66.6597835 117.74025073 -66.65108109 116.02033615 C-66.30804913 106.76556881 -66.30804913 106.76556881 -69.93330383 98.67886353 C-72.24430429 97.11233654 -74.42135702 96.05275599 -77 95 C-78.52227171 94.0973498 -80.0334229 93.17539813 -81.52734375 92.2265625 C-82.99579093 91.35666011 -84.46583885 90.48945402 -85.9375 89.625 C-86.69095703 89.17511719 -87.44441406 88.72523437 -88.22070312 88.26171875 C-88.94064453 87.83761719 -89.66058594 87.41351563 -90.40234375 86.9765625 C-91.04679443 86.59580566 -91.69124512 86.21504883 -92.35522461 85.82275391 C-95.43509018 84.28213539 -96.04339157 85.02892771 -99 87 Z M81 95 C80.01 95.33 79.02 95.66 78 96 C78 96.66 78 97.32 78 98 C77.278125 98.103125 76.55625 98.20625 75.8125 98.3125 C72.72206579 99.06793947 70.58256159 100.15531315 68 102 C68 102.66 68 103.32 68 104 C67.01 104.33 66.02 104.66 65 105 C65 113.25 65 121.5 65 130 C70.03335021 131.25833755 72.27721968 129.69688452 76.5625 127.3125 C77.23474609 126.95994141 77.90699219 126.60738281 78.59960938 126.24414062 C82.25622637 124.25787499 84.86382576 122.69910172 87 119 C87.41222764 116.00236603 87.41222764 116.00236603 87.29296875 112.703125 C87.28330078 111.49785156 87.27363281 110.29257813 87.26367188 109.05078125 C87.23853516 107.79652344 87.21339844 106.54226562 87.1875 105.25 C87.17396484 103.98027344 87.16042969 102.71054688 87.14648438 101.40234375 C87.1111324 98.26780156 87.06178248 95.13411455 87 92 C84.23408664 92 83.17081796 93.35544094 81 95 Z M74.3125 153.6875 C73.74466797 154.04005859 73.17683594 154.39261719 72.59179688 154.75585938 C69.40300575 156.80072309 66.78275236 158.62787859 65 162 C64.37561811 165.37856763 64.37561811 165.37856763 64.25 169.1875 C64.21398682 169.87714844 64.17797363 170.56679687 64.14086914 171.27734375 C63.81180651 179.21051769 64.36407248 187.09493178 65 195 C66.37671875 194.22076172 66.37671875 194.22076172 67.78125 193.42578125 C68.37268799 193.0913501 68.96412598 192.75691895 69.57348633 192.41235352 C70.86465574 191.6752203 72.15095455 190.92949364 73.43237305 190.17553711 C76.15402036 188.57820621 78.73076286 187.10533657 81.67578125 185.953125 C84.20706264 184.89803879 85.39691585 184.24800306 87 182 C89.06621409 171.88873956 88.04968978 161.19006535 87 151 C81.62701289 149.47995675 78.76433176 150.71101457 74.3125 153.6875 Z " fill="#111C30" transform="translate(141,9)"/>
<path d="M0 0 C4.04161224 2.03875696 7.85150244 4.41350252 11.6875 6.8125 C13.94522473 8.19675775 16.2030382 9.58087077 18.4609375 10.96484375 C20.1310791 11.99714111 20.1310791 11.99714111 21.83496094 13.05029297 C26.13635392 15.70000944 30.47282515 18.2886788 34.8125 20.875 C40.45127606 24.25167193 46.07657977 27.65006857 51.69140625 31.06640625 C52.27608673 31.42209686 52.86076721 31.77778748 53.46316528 32.14425659 C55.86615017 33.60628284 58.26908371 35.06839136 60.67126465 36.53173828 C69.8357909 42.11313678 79.04587667 47.60985259 88.33740234 52.97827148 C89.17609863 53.46755127 90.01479492 53.95683105 90.87890625 54.4609375 C91.6066626 54.88165527 92.33441895 55.30237305 93.08422852 55.73583984 C94.98486596 56.9900135 96.45637308 58.33352597 98 60 C96.89140625 60.68707031 95.7828125 61.37414062 94.640625 62.08203125 C93.17702344 62.99209119 91.71348509 63.90225278 90.25 64.8125 C89.52039063 65.26431641 88.79078125 65.71613281 88.0390625 66.18164062 C84.58625749 68.33179647 81.19338527 70.47050272 78 73 C76 72 76 72 73.74707031 70.16137695 C70.95087663 67.96135005 68.12504925 66.19911887 65.046875 64.41796875 C64.47825745 64.08708252 63.90963989 63.75619629 63.3237915 63.4152832 C62.10308604 62.70534889 60.88135501 61.99717553 59.65869141 61.2906189 C56.38740446 59.39999455 53.12366114 57.49642795 49.859375 55.59375 C49.19651489 55.20777145 48.53365479 54.82179291 47.85070801 54.42411804 C42.57072276 51.34505628 37.32529355 48.2127302 32.09326172 45.05273438 C29.03611668 43.20927833 25.96758844 41.3858756 22.8984375 39.5625 C18.9241813 37.19129413 15.03169855 34.72853036 11.1640625 32.1875 C9.31779745 31.02069232 7.47144739 29.85401912 5.625 28.6875 C4.81160156 28.12248779 3.99820313 27.55747559 3.16015625 26.9753418 C0.68937258 25.4501824 -1.13289783 24.48528157 -4 24 C-8.14061643 25.29726497 -11.43623459 27.56857802 -15 30 C-16.69755258 31.00261699 -18.40189032 31.99384744 -20.11328125 32.97265625 C-21.84745745 34.00074543 -23.58049564 35.03075616 -25.3125 36.0625 C-27.24217532 37.20705179 -29.17186318 38.35158243 -31.1015625 39.49609375 C-32.07770508 40.07601074 -33.05384766 40.65592773 -34.05957031 41.25341797 C-38.76592616 44.0489402 -43.47595675 46.83823091 -48.1875 49.625 C-49.085896 50.15641602 -49.98429199 50.68783203 -50.90991211 51.23535156 C-59.90613196 56.54875153 -68.94722928 61.78368061 -78 67 C-74.52979537 69.88885694 -71.00085988 72.30883218 -67.11328125 74.6015625 C-66.01048828 75.25640625 -64.90769531 75.91125 -63.77148438 76.5859375 C-62.61870371 77.2659881 -61.46570653 77.94567182 -60.3125 78.625 C-58.03564716 79.96786494 -55.76139965 81.31485674 -53.48828125 82.6640625 C-51.98068237 83.55279053 -51.98068237 83.55279053 -50.44262695 84.45947266 C-48 86 -48 86 -46 88 C-45.72876453 89.85354233 -45.72876453 89.85354233 -45.69892883 92.14837646 C-45.68317307 93.01752686 -45.6674173 93.88667725 -45.65118408 94.78216553 C-45.64423523 95.73802551 -45.63728638 96.6938855 -45.63012695 97.67871094 C-45.61537827 98.68373657 -45.60062958 99.68876221 -45.58543396 100.72424316 C-45.54079339 104.06094325 -45.51265615 107.39746801 -45.48828125 110.734375 C-45.47888205 111.87243843 -45.46948284 113.01050186 -45.45979881 114.18305206 C-45.4121828 120.20697868 -45.37851595 126.23081752 -45.35473633 132.25488281 C-45.32702055 138.48108476 -45.24785059 144.70553051 -45.15719318 150.93108749 C-45.09741939 155.71464649 -45.07747393 160.49778616 -45.06822777 165.28168488 C-45.05663095 167.57671057 -45.02974374 169.87171174 -44.98729897 172.16637421 C-44.93137718 175.38025976 -44.93215596 178.58947645 -44.9465332 181.80371094 C-44.91731781 182.751474 -44.88810242 183.69923706 -44.85800171 184.67572021 C-44.90518962 187.39782928 -45.04475623 189.44718425 -46 192 C-48.71241971 194.61417492 -51.661911 196.29527744 -55 198 C-56.01191406 198.62648437 -57.02382812 199.25296875 -58.06640625 199.8984375 C-58.89011719 200.38570312 -59.71382812 200.87296875 -60.5625 201.375 C-61.40941406 201.87773437 -62.25632813 202.38046875 -63.12890625 202.8984375 C-63.74636719 203.26195312 -64.36382812 203.62546875 -65 204 C-64.505 204.45375 -64.01 204.9075 -63.5 205.375 C-62 207 -62 207 -62 209 C-64.85948337 210.71488302 -67.73960028 212.39165226 -70.625 214.0625 C-71.43324219 214.54783203 -72.24148437 215.03316406 -73.07421875 215.53320312 C-73.86699219 215.98759766 -74.65976563 216.44199219 -75.4765625 216.91015625 C-76.19924316 217.33433838 -76.92192383 217.75852051 -77.66650391 218.19555664 C-80.84950357 219.29285565 -82.76450948 218.87159733 -86 218 C-88.83325195 216.60473633 -88.83325195 216.60473633 -91.73828125 214.83203125 C-92.80626953 214.18556641 -93.87425781 213.53910156 -94.97460938 212.87304688 C-96.07611328 212.19306641 -97.17761719 211.51308594 -98.3125 210.8125 C-99.40240234 210.15185547 -100.49230469 209.49121094 -101.61523438 208.81054688 C-118.43512019 198.56487981 -118.43512019 198.56487981 -121 196 C-121.11788397 194.34618725 -121.16629322 192.68738311 -121.18754578 191.0295105 C-121.20337204 189.95282608 -121.2191983 188.87614166 -121.23550415 187.76683044 C-121.24761932 186.57517776 -121.2597345 185.38352509 -121.2722168 184.15576172 C-121.28842575 182.90864914 -121.3046347 181.66153656 -121.32133484 180.37663269 C-121.46163246 168.85893147 -121.54112102 157.34040206 -121.60025311 145.82201958 C-121.64480706 137.30727777 -121.72189332 128.79414894 -121.84183758 120.28012836 C-121.92331751 114.29451558 -121.96640271 108.30934401 -121.98155528 102.32320035 C-121.9917138 98.74786029 -122.01893106 95.17454952 -122.08786583 91.59981918 C-122.16403446 87.60572688 -122.16086386 83.61541237 -122.15112305 79.62060547 C-122.18550476 78.44109818 -122.21988647 77.26159088 -122.25531006 76.04634094 C-122.14629792 68.19894865 -122.14629792 68.19894865 -118.86509132 64.76703262 C-116.31402026 62.95077764 -113.7737047 61.44867076 -111 60 C-109.39860313 59.05359328 -107.79925707 58.10369663 -106.203125 57.1484375 C-104.55456185 56.21954577 -102.90342017 55.29521848 -101.25 54.375 C-99.38984457 53.32560093 -97.53049396 52.2747742 -95.671875 51.22265625 C-94.72892578 50.68914551 -93.78597656 50.15563477 -92.81445312 49.60595703 C-88.34730033 47.05695191 -83.92251077 44.43798392 -79.5 41.8125 C-73.39368379 38.18821205 -67.28199497 34.57413008 -61.1484375 30.99609375 C-47.29617299 22.91178424 -33.51202565 14.73212969 -19.83349609 6.35644531 C-18.73215332 5.68323242 -17.63081055 5.01001953 -16.49609375 4.31640625 C-15.52857178 3.72287354 -14.5610498 3.12934082 -13.56420898 2.51782227 C-8.66913777 -0.37969823 -5.63038283 -1.87508304 0 0 Z M-99 87 C-99.33380905 89.98590572 -99.47176184 92.7684583 -99.48339844 95.76074219 C-99.49829315 96.66823212 -99.51318787 97.57572205 -99.52853394 98.51071167 C-99.57246596 101.52283477 -99.59281621 104.53448372 -99.609375 107.546875 C-99.62662644 109.63714617 -99.64389967 111.72741717 -99.66119385 113.81768799 C-99.69274455 118.20595517 -99.71025788 122.59405717 -99.72070312 126.98242188 C-99.73714656 132.60343829 -99.80918648 138.22227012 -99.89461899 143.84260178 C-99.95052765 148.1629673 -99.96611623 152.48280823 -99.97071075 156.80350494 C-99.97978878 158.87523572 -100.00387096 160.94695736 -100.0432663 163.01833344 C-100.75007098 173.85665013 -100.75007098 173.85665013 -97.07043457 183.56311035 C-94.72445371 185.16777425 -92.6889416 186.11309897 -90 187 C-89.34642517 187.3879071 -88.69285034 187.77581421 -88.01947021 188.17547607 C-84.28669183 189.69952187 -81.35437096 188.13196528 -77.72372437 186.77993774 C-73.99911494 184.90878673 -70.70134328 183.22725245 -68 180 C-66.08432728 174.05608436 -66.26003386 168.34107589 -66.4140625 162.1484375 C-66.41546532 160.40304367 -66.41241204 158.65764112 -66.40512085 156.91226196 C-66.40400858 153.26438134 -66.44758465 149.62067464 -66.52490234 145.97363281 C-66.62152376 141.30696104 -66.62021504 136.6466088 -66.58725929 131.97925377 C-66.57025173 128.37898556 -66.59800458 124.7801569 -66.63990402 121.18013382 C-66.65592025 119.4602718 -66.6597835 117.74025073 -66.65108109 116.02033615 C-66.30804913 106.76556881 -66.30804913 106.76556881 -69.93330383 98.67886353 C-72.24430429 97.11233654 -74.42135702 96.05275599 -77 95 C-78.52227171 94.0973498 -80.0334229 93.17539813 -81.52734375 92.2265625 C-82.99579093 91.35666011 -84.46583885 90.48945402 -85.9375 89.625 C-86.69095703 89.17511719 -87.44441406 88.72523437 -88.22070312 88.26171875 C-88.94064453 87.83761719 -89.66058594 87.41351563 -90.40234375 86.9765625 C-91.04679443 86.59580566 -91.69124512 86.21504883 -92.35522461 85.82275391 C-95.43509018 84.28213539 -96.04339157 85.02892771 -99 87 Z " fill="#1268D5" transform="translate(141,9)"/>
<path d="M0 0 C1.33020608 4.40955729 0.47203641 8.21211967 -0.35522461 12.65112305 C-0.58909126 13.96237152 -0.58909126 13.96237152 -0.8276825 15.30010986 C-1.16760721 17.20329491 -1.51099412 19.10586405 -1.85740471 21.00787926 C-2.40974864 24.05253634 -2.94836307 27.09932311 -3.48280334 30.14717102 C-5.00361761 38.81592794 -6.53413668 47.48274975 -8.10913086 56.1418457 C-12.73223454 81.6178652 -16.47735843 106.05716316 -15 132 C-14.34 132.33 -13.68 132.66 -13 133 C-11.13054812 132.19436593 -11.13054812 132.19436593 -9.12109375 130.91015625 C-8.36505859 130.45576172 -7.60902344 130.00136719 -6.83007812 129.53320312 C-6.04052734 129.04787109 -5.25097656 128.56253906 -4.4375 128.0625 C-2.87473373 127.11417636 -1.31098419 126.16747054 0.25390625 125.22265625 C0.94814697 124.79734619 1.6423877 124.37203613 2.35766602 123.93383789 C4 123 4 123 5 123 C5 131.25 5 139.5 5 148 C1.6175 150.000625 -1.765 152.00125 -5.25 154.0625 C-6.30993164 154.69808838 -7.36986328 155.33367676 -8.46191406 155.98852539 C-9.30463867 156.47828857 -10.14736328 156.96805176 -11.015625 157.47265625 C-11.87446289 157.98062744 -12.73330078 158.48859863 -13.61816406 159.01196289 C-16.38211782 160.15851074 -17.27326559 160.11755342 -20 159 C-22.98283324 157.50803687 -25.82153613 155.76678043 -28.6875 154.0625 C-29.8640918 153.37897461 -29.8640918 153.37897461 -31.06445312 152.68164062 C-31.81017578 152.24142578 -32.55589844 151.80121094 -33.32421875 151.34765625 C-34.3464856 150.74449585 -34.3464856 150.74449585 -35.3894043 150.12915039 C-37 149 -37 149 -38 147 C-38.16186922 144.24557275 -38.26110108 141.51881559 -38.30859375 138.76171875 C-38.32390137 137.91096268 -38.33920898 137.0602066 -38.35498047 136.18367004 C-38.71067717 111.6156048 -36.73396773 88.02266836 -32.90283203 63.77392578 C-32.10871879 58.74281814 -31.36746357 53.70524456 -30.63887024 48.66427612 C-30.04471463 44.57044302 -29.43373222 40.47925851 -28.81765747 36.38867188 C-28.52481824 34.43632957 -28.23607604 32.4833679 -27.95162964 30.52978516 C-27.55466887 27.8281971 -27.13600249 25.13088315 -26.7109375 22.43359375 C-26.59749496 21.6347728 -26.48405243 20.83595184 -26.36717224 20.01292419 C-25.61561525 15.42214555 -24.75556527 12.82426948 -21 10 C-18.83349609 8.62792969 -18.83349609 8.62792969 -16.5234375 7.421875 C-15.688125 6.98359375 -14.8528125 6.5453125 -13.9921875 6.09375 C-13.12851563 5.6503125 -12.26484375 5.206875 -11.375 4.75 C-10.50359375 4.29109375 -9.6321875 3.8321875 -8.734375 3.359375 C-2.27557664 0 -2.27557664 0 0 0 Z " fill="#1475EA" transform="translate(144,44)"/>
<path d="M0 0 C0 12.87 0 25.74 0 39 C0.66 39.33 1.32 39.66 2 40 C3.86945188 39.19436593 3.86945188 39.19436593 5.87890625 37.91015625 C6.63494141 37.45576172 7.39097656 37.00136719 8.16992188 36.53320312 C8.95947266 36.04787109 9.74902344 35.56253906 10.5625 35.0625 C12.12526627 34.11417636 13.68901581 33.16747054 15.25390625 32.22265625 C15.94814697 31.79734619 16.6423877 31.37203613 17.35766602 30.93383789 C19 30 19 30 20 30 C20 38.25 20 46.5 20 55 C14.92625 58.0009375 14.92625 58.0009375 9.75 61.0625 C8.69006836 61.69808838 7.63013672 62.33367676 6.53808594 62.98852539 C5.69536133 63.47828857 4.85263672 63.96805176 3.984375 64.47265625 C3.12553711 64.98062744 2.26669922 65.48859863 1.38183594 66.01196289 C-1.38211782 67.15851074 -2.27326559 67.11755342 -5 66 C-7.98283324 64.50803687 -10.82153613 62.76678043 -13.6875 61.0625 C-14.47189453 60.60681641 -15.25628906 60.15113281 -16.06445312 59.68164062 C-16.81017578 59.24142578 -17.55589844 58.80121094 -18.32421875 58.34765625 C-19.00572998 57.94554932 -19.68724121 57.54344238 -20.3894043 57.12915039 C-22 56 -22 56 -23 54 C-23.09799371 51.8051258 -23.13077832 49.60721597 -23.1328125 47.41015625 C-23.13376923 46.75099716 -23.13472595 46.09183807 -23.13571167 45.41270447 C-23.13639313 44.01138209 -23.1345412 42.61005657 -23.13037109 41.20874023 C-23.12509879 39.10197474 -23.13027682 36.99543003 -23.13671875 34.88867188 C-23.15783059 13.27958658 -23.15783059 13.27958658 -20.03125 9.82421875 C-19.1959375 9.44910156 -18.360625 9.07398438 -17.5 8.6875 C-16.60152344 8.24535156 -15.70304687 7.80320313 -14.77734375 7.34765625 C-13.86082031 6.90292969 -12.94429687 6.45820313 -12 6 C-9.60037563 4.41368343 -7.25780635 2.76323861 -4.91015625 1.1015625 C-3 0 -3 0 0 0 Z " fill="#1249A2" transform="translate(129,137)"/>
<path d="M0 0 C1.51599123 3.03198246 0.79307949 5.64290765 0.5 9 C-0.20377155 18.06197647 0.31924875 26.95124498 1 36 C-0.485 36.495 -0.485 36.495 -2 37 C-2.04967599 32.69500266 -2.08584945 28.39016007 -2.10986328 24.08496094 C-2.11988105 22.62236624 -2.13349912 21.15979137 -2.15087891 19.69726562 C-2.17531439 17.58718961 -2.18652537 15.47737988 -2.1953125 13.3671875 C-2.20578613 12.09987793 -2.21625977 10.83256836 -2.22705078 9.52685547 C-2.00065167 6.01012267 -1.27223601 3.27083513 0 0 Z " fill="#81868F" transform="translate(206,169)"/>
<path d="M0 0 C0.33 0 0.66 0 1 0 C1 12.21 1 24.42 1 37 C-0.32 37.66 -1.64 38.32 -3 39 C-2.67 38.01 -2.34 37.02 -2 36 C-1.34 36 -0.68 36 0 36 C-0.10828125 35.10087891 -0.10828125 35.10087891 -0.21875 34.18359375 C-0.9830985 26.72057992 -1.1111238 19.31085054 -1.125 11.8125 C-1.13176758 10.25196899 -1.13176758 10.25196899 -1.13867188 8.65991211 C-1.13673828 7.68546143 -1.13480469 6.71101074 -1.1328125 5.70703125 C-1.13168457 4.8250708 -1.13055664 3.94311035 -1.12939453 3.03442383 C-1 1 -1 1 0 0 Z " fill="#255BAD" transform="translate(94,164)"/>
<path d="M0 0 C1.9375 0.3125 1.9375 0.3125 4 1 C4.33 1.99 4.66 2.98 5 4 C3.54462432 4.83848804 2.08559627 5.67063934 0.625 6.5 C-0.59316406 7.19609375 -0.59316406 7.19609375 -1.8359375 7.90625 C-4 9 -4 9 -6 9 C-6 8.34 -6 7.68 -6 7 C-5.195625 6.54625 -4.39125 6.0925 -3.5625 5.625 C-0.84763807 4.26579005 -0.84763807 4.26579005 -0.1875 1.8125 C-0.125625 1.214375 -0.06375 0.61625 0 0 Z " fill="#3F62A1" transform="translate(74,214)"/>
<path d="M0 0 C0.33 0.99 0.66 1.98 1 3 C1.66 3.33 2.32 3.66 3 4 C2.79503906 4.58007812 2.59007813 5.16015625 2.37890625 5.7578125 C0.85990187 10.1621984 -0.4047151 14.35677777 -1 19 C-1.33 19 -1.66 19 -2 19 C-1.85820962 16.77057252 -1.71140302 14.54146372 -1.5625 12.3125 C-1.48128906 11.07113281 -1.40007812 9.82976562 -1.31640625 8.55078125 C-1.05508683 5.61819663 -0.65201621 2.86558383 0 0 Z " fill="#4099F6" transform="translate(119,58)"/>
<path d="M0 0 C0.59296875 0.20238281 1.1859375 0.40476563 1.796875 0.61328125 C0.50874158 1.4520658 -0.78375756 2.28414908 -2.078125 3.11328125 C-2.79742187 3.57734375 -3.51671875 4.04140625 -4.2578125 4.51953125 C-6.203125 5.61328125 -6.203125 5.61328125 -8.203125 5.61328125 C-8.203125 4.95328125 -8.203125 4.29328125 -8.203125 3.61328125 C-2.99894173 -0.52640999 -2.99894173 -0.52640999 0 0 Z " fill="#3896F7" transform="translate(95.203125,55.38671875)"/>
<path d="M0 0 C0.33 0 0.66 0 1 0 C1.1953125 2.01822917 1.390625 4.03645833 1.5859375 6.0546875 C1.86374749 8.22668245 1.86374749 8.22668245 4 10 C3.360625 10.12375 2.72125 10.2475 2.0625 10.375 C1.381875 10.58125 0.70125 10.7875 0 11 C-0.33 11.66 -0.66 12.32 -1 13 C-0.67 8.71 -0.34 4.42 0 0 Z " fill="#5C91E3" transform="translate(107,138)"/>
<path d="M0 0 C0 0.66 0 1.32 0 2 C-0.99 2 -1.98 2 -3 2 C-3 2.66 -3 3.32 -3 4 C-6 6 -6 6 -8.1875 5.625 C-8.785625 5.41875 -9.38375 5.2125 -10 5 C-8.71186658 4.16121545 -7.41936744 3.32913217 -6.125 2.5 C-5.40570313 2.0359375 -4.68640625 1.571875 -3.9453125 1.09375 C-2 0 -2 0 0 0 Z " fill="#429FF7" transform="translate(85,38)"/>
<path d="M0 0 C3.99500618 1.3697164 6.80009492 3.25722422 10 6 C5.8333396 5.52651586 3.07115285 4.95303159 0 2 C0 1.34 0 0.68 0 0 Z " fill="#45A2F6" transform="translate(139,9)"/>
<path d="M0 0 C0.99 0.33 1.98 0.66 3 1 C1.68 2.65 0.36 4.3 -1 6 C-1.99 5.67 -2.98 5.34 -4 5 C-2.68 3.35 -1.36 1.7 0 0 Z " fill="#313745" transform="translate(191,161)"/>
<path d="M0 0 C0.66 0.33 1.32 0.66 2 1 C0.71937515 2.7074998 -0.61767557 4.37373596 -2 6 C-2.66 6 -3.32 6 -4 6 C-3.6875 4.125 -3.6875 4.125 -3 2 C-2.01 1.34 -1.02 0.68 0 0 Z " fill="#3F4553" transform="translate(188,98)"/>
</svg>
