<svg width="167" height="48" viewBox="0 0 167 48" fill="none" xmlns="http://www.w3.org/2000/svg">
<path d="M89.52 16.3855C89.6933 16.3855 89.84 16.4522 89.96 16.5855C90.0933 16.7055 90.16 16.8522 90.16 17.0255V30.4655C90.16 30.6522 90.0933 30.8055 89.96 30.9255C89.84 31.0455 89.6933 31.1055 89.52 31.1055H88.24C88.0533 31.1055 87.9 31.0455 87.78 30.9255C87.66 30.8055 87.6 30.6522 87.6 30.4655V25.0255H80.56V30.4655C80.56 30.6522 80.5 30.8055 80.38 30.9255C80.26 31.0455 80.1067 31.1055 79.92 31.1055H78.64C78.4533 31.1055 78.3 31.0455 78.18 30.9255C78.06 30.8055 78 30.6522 78 30.4655V17.0255C78 16.8522 78.06 16.7055 78.18 16.5855C78.3 16.4522 78.4533 16.3855 78.64 16.3855H79.92C80.1067 16.3855 80.26 16.4522 80.38 16.5855C80.5 16.7055 80.56 16.8522 80.56 17.0255V22.4655H87.6V17.0255C87.6 16.8522 87.66 16.7055 87.78 16.5855C87.9 16.4522 88.0533 16.3855 88.24 16.3855H89.52Z" fill="black"/>
<path d="M94.9741 27.2255L96.2941 28.5455H99.4541V24.0655H96.2941L94.9741 25.3855V27.2255ZM95.4941 31.1055C95.3074 31.1055 95.1541 31.0455 95.0341 30.9255L92.5941 28.4855C92.4741 28.3655 92.4141 28.2122 92.4141 28.0255V24.5855C92.4141 24.3988 92.4741 24.2455 92.5941 24.1255L95.0341 21.7055C95.1674 21.5722 95.3207 21.5055 95.4941 21.5055H101.374C101.547 21.5055 101.694 21.5722 101.814 21.7055C101.947 21.8255 102.014 21.9722 102.014 22.1455V30.4655C102.014 30.6522 101.947 30.8055 101.814 30.9255C101.694 31.0455 101.547 31.1055 101.374 31.1055H95.4941Z" fill="black"/>
<path d="M106.81 25.3855V27.2255L108.13 28.5455H111.93C112.117 28.5455 112.27 28.6122 112.39 28.7455C112.51 28.8655 112.57 29.0122 112.57 29.1855V30.4655C112.57 30.6522 112.51 30.8055 112.39 30.9255C112.27 31.0455 112.117 31.1055 111.93 31.1055H107.33C107.143 31.1055 106.99 31.0455 106.87 30.9255L104.43 28.4855C104.31 28.3655 104.25 28.2122 104.25 28.0255V24.5855C104.25 24.3988 104.31 24.2455 104.43 24.1255L106.87 21.7055C107.003 21.5722 107.157 21.5055 107.33 21.5055H111.93C112.117 21.5055 112.27 21.5722 112.39 21.7055C112.51 21.8255 112.57 21.9722 112.57 22.1455V23.4255C112.57 23.6122 112.51 23.7655 112.39 23.8855C112.27 24.0055 112.117 24.0655 111.93 24.0655H108.13L106.81 25.3855Z" fill="black"/>
<path d="M116.424 16.3855C116.611 16.3855 116.764 16.4522 116.884 16.5855C117.004 16.7055 117.064 16.8522 117.064 17.0255V26.7455L119.304 24.5055L122.104 21.7055C122.237 21.5722 122.391 21.5055 122.564 21.5055C122.684 21.5055 122.831 21.4988 123.004 21.4855C123.191 21.4722 123.364 21.4855 123.524 21.5255C123.684 21.5522 123.817 21.6122 123.924 21.7055C124.044 21.7988 124.104 21.9455 124.104 22.1455V23.0455C124.104 23.2322 124.044 23.3855 123.924 23.5055L121.104 26.3055L123.924 29.1055C124.044 29.2255 124.104 29.3788 124.104 29.5655C124.104 29.6855 124.111 29.8388 124.124 30.0255C124.137 30.1988 124.124 30.3655 124.084 30.5255C124.057 30.6855 123.997 30.8255 123.904 30.9455C123.811 31.0522 123.664 31.1055 123.464 31.1055H122.564C122.377 31.1055 122.224 31.0455 122.104 30.9255L119.304 28.1255L116.504 30.9255C116.384 31.0455 116.231 31.1055 116.044 31.1055C115.644 31.1055 115.337 31.0988 115.124 31.0855C114.924 31.0722 114.777 31.0188 114.684 30.9255C114.591 30.8322 114.537 30.6855 114.524 30.4855C114.511 30.2722 114.504 29.9655 114.504 29.5655V17.0255C114.504 16.8522 114.564 16.7055 114.684 16.5855C114.804 16.4522 114.957 16.3855 115.144 16.3855H116.424Z" fill="black"/>
<path d="M127.303 16.3855C127.489 16.3855 127.643 16.4522 127.763 16.5855C127.883 16.7055 127.943 16.8522 127.943 17.0255V28.5455H135.623C135.796 28.5455 135.943 28.6122 136.063 28.7455C136.196 28.8655 136.263 29.0122 136.263 29.1855V30.4655C136.263 30.6522 136.196 30.8055 136.063 30.9255C135.943 31.0455 135.796 31.1055 135.623 31.1055H126.023C125.836 31.1055 125.683 31.0455 125.563 30.9255C125.443 30.8055 125.383 30.6522 125.383 30.4655V17.0255C125.383 16.8522 125.443 16.7055 125.563 16.5855C125.683 16.4522 125.836 16.3855 126.023 16.3855H127.303Z" fill="#2490F3"/>
<path d="M139.603 27.2255L140.923 28.5455H144.083V24.0655H140.923L139.603 25.3855V27.2255ZM140.123 31.1055C139.936 31.1055 139.783 31.0455 139.663 30.9255L137.223 28.4855C137.103 28.3655 137.043 28.2122 137.043 28.0255V24.5855C137.043 24.3988 137.103 24.2455 137.223 24.1255L139.663 21.7055C139.796 21.5722 139.95 21.5055 140.123 21.5055H146.003C146.176 21.5055 146.323 21.5722 146.443 21.7055C146.576 21.8255 146.643 21.9722 146.643 22.1455V30.4655C146.643 30.6522 146.576 30.8055 146.443 30.9255C146.323 31.0455 146.176 31.1055 146.003 31.1055H140.123Z" fill="#2490F3"/>
<path d="M155.978 25.3855L154.658 24.0655H151.497V27.2255L152.817 28.5455H154.658L155.978 27.2255V25.3855ZM155.457 21.5055C155.631 21.5055 155.784 21.5722 155.918 21.7055L158.338 24.1255C158.471 24.2588 158.537 24.4122 158.537 24.5855V28.0255C158.537 28.1988 158.471 28.3522 158.338 28.4855L155.918 30.9255C155.798 31.0455 155.644 31.1055 155.457 31.1055H152.018C151.831 31.1055 151.678 31.0455 151.558 30.9255L149.118 28.4855C148.998 28.3655 148.938 28.2122 148.938 28.0255V17.0255C148.938 16.8522 148.998 16.7055 149.118 16.5855C149.238 16.4522 149.391 16.3855 149.577 16.3855H150.857C151.044 16.3855 151.197 16.4522 151.317 16.5855C151.437 16.7055 151.497 16.8522 151.497 17.0255V21.5055H155.457Z" fill="#2490F3"/>
<path d="M8 10C8 8.89543 8.89543 8 10 8H23.555C24.0414 8 24.5049 8.20679 24.8299 8.56878C28.9142 13.119 36.0438 13.119 40.1281 8.56878C40.453 8.20679 40.9165 8 41.403 8H71.2773C72.3819 8 73.2773 8.89543 73.2773 10V35.0979C73.2773 36.2024 72.3819 37.0979 71.2773 37.0979H41.3062C40.8729 37.0979 40.4514 37.2386 40.1049 37.4988L39.6867 37.813C35.4169 41.0207 29.5411 41.0207 25.2713 37.813L24.8531 37.4988C24.5066 37.2386 24.0851 37.0979 23.6518 37.0979H10C8.89543 37.0979 8 36.2024 8 35.0979V10Z" fill="#2490F3"/>
<path d="M23.1111 15.8938C23.2844 15.8938 23.4378 15.9605 23.5711 16.0938L25.9911 18.5138C26.1244 18.6471 26.1911 18.8005 26.1911 18.9738V27.5338C26.1911 27.7071 26.1244 27.8605 25.9911 27.9938L23.5711 30.4338C23.4511 30.5538 23.2978 30.6138 23.1111 30.6138H17.1911C17.0044 30.6138 16.8511 30.5538 16.7311 30.4338L14.2911 27.9938C14.1711 27.8738 14.1111 27.7205 14.1111 27.5338V18.9738C14.1111 18.7871 14.1711 18.6338 14.2911 18.5138L16.7311 16.0938C16.8644 15.9605 17.0178 15.8938 17.1911 15.8938H23.1111ZM22.3111 28.0538L23.6311 26.7538V19.7738L22.3111 18.4538H17.9711L16.6711 19.7738V26.7538L17.9711 28.0538H22.3111Z" fill="white"/>
<path d="M29.3317 30.6138C29.2117 30.6138 29.0584 30.6205 28.8717 30.6338C28.6984 30.6471 28.5317 30.6405 28.3717 30.6138C28.2117 30.5738 28.0717 30.5071 27.9517 30.4138C27.845 30.3205 27.7917 30.1738 27.7917 29.9738V29.0738C27.7917 28.8871 27.8517 28.7338 27.9717 28.6138L30.7717 25.8138L27.9717 23.0138C27.8517 22.8938 27.7917 22.7405 27.7917 22.5538C27.7917 22.4338 27.785 22.2871 27.7717 22.1138C27.7584 21.9271 27.765 21.7538 27.7917 21.5938C27.8317 21.4338 27.8984 21.3005 27.9917 21.1938C28.085 21.0738 28.2317 21.0138 28.4317 21.0138H29.3317C29.505 21.0138 29.6584 21.0805 29.7917 21.2138L32.5917 24.0138L35.3917 21.2138C35.525 21.0805 35.6784 21.0138 35.8517 21.0138C35.9717 21.0138 36.1184 21.0071 36.2917 20.9938C36.4784 20.9805 36.6517 20.9938 36.8117 21.0338C36.9717 21.0605 37.105 21.1205 37.2117 21.2138C37.3317 21.3071 37.3917 21.4538 37.3917 21.6538V22.5538C37.3917 22.7138 37.3317 22.8671 37.2117 23.0138L34.3917 25.8138L37.2117 28.6138C37.3317 28.7605 37.3917 28.9138 37.3917 29.0738C37.3917 29.1938 37.3984 29.3471 37.4117 29.5338C37.425 29.7071 37.4117 29.8738 37.3717 30.0338C37.345 30.1938 37.285 30.3338 37.1917 30.4538C37.0984 30.5605 36.9517 30.6138 36.7517 30.6138H35.8517C35.665 30.6138 35.5117 30.5538 35.3917 30.4338L32.5917 27.6338L29.7917 30.4338C29.6717 30.5538 29.5184 30.6138 29.3317 30.6138Z" fill="white"/>
<path d="M41.1669 15.8938C41.3402 15.8938 41.4869 15.9605 41.6069 16.0938C41.7402 16.2138 41.8069 16.3605 41.8069 16.5338V25.4938H46.2869V21.6538C46.2869 21.4805 46.3469 21.3338 46.4669 21.2138C46.5869 21.0805 46.7402 21.0138 46.9269 21.0138H48.2069C48.3802 21.0138 48.5269 21.0805 48.6469 21.2138C48.7802 21.3338 48.8469 21.4805 48.8469 21.6538V25.4938H50.7669C50.9402 25.4938 51.0869 25.5605 51.2069 25.6938C51.3402 25.8138 51.4069 25.9605 51.4069 26.1338V27.4138C51.4069 27.6005 51.3402 27.7538 51.2069 27.8738C51.0869 27.9938 50.9402 28.0538 50.7669 28.0538H48.8469V29.9738C48.8469 30.1605 48.7802 30.3138 48.6469 30.4338C48.5269 30.5538 48.3802 30.6138 48.2069 30.6138H46.9269C46.7402 30.6138 46.5869 30.5538 46.4669 30.4338C46.3469 30.3138 46.2869 30.1605 46.2869 29.9738V28.0538H41.1669H39.8869C39.7002 28.0538 39.5469 27.9938 39.4269 27.8738C39.3069 27.7538 39.2469 27.6005 39.2469 27.4138V16.5338C39.2469 16.3605 39.3069 16.2138 39.4269 16.0938C39.5469 15.9605 39.7002 15.8938 39.8869 15.8938H41.1669Z" fill="white"/>
<path d="M61.5876 15.8938C61.761 15.8938 61.9143 15.9605 62.0476 16.0938L64.1876 18.2338C64.321 18.3671 64.3876 18.5205 64.3876 18.6938V21.7338C64.3876 21.9071 64.321 22.0605 64.1876 22.1938L63.2876 23.0938L64.5076 24.3138C64.641 24.4471 64.7076 24.6005 64.7076 24.7738V27.8138C64.7076 27.9871 64.641 28.1405 64.5076 28.2738L62.3676 30.4338C62.2476 30.5538 62.0943 30.6138 61.9076 30.6138H55.3476C55.161 30.6138 55.0076 30.5538 54.8876 30.4338L52.7276 28.2738C52.6076 28.1538 52.5476 28.0005 52.5476 27.8138V24.7738C52.5476 24.5871 52.6076 24.4338 52.7276 24.3138L53.9476 23.0938L53.0476 22.1938C52.9276 22.0738 52.8676 21.9205 52.8676 21.7338V18.6938C52.8676 18.5071 52.9276 18.3538 53.0476 18.2338L55.2076 16.0938C55.341 15.9605 55.4943 15.8938 55.6676 15.8938H61.5876ZM60.7876 21.9738L61.8276 20.9538V19.4938L60.7876 18.4538H56.4476L55.4276 19.4938V20.9538L56.4476 21.9738H60.7876ZM61.1076 28.0538L62.1476 27.0338V25.5738L61.1076 24.5338H56.1276L55.1076 25.5738V27.0338L56.1276 28.0538H61.1076Z" fill="white"/>
</svg>
